<svg xmlns="http://www.w3.org/2000/svg" xmlns:xlink="http://www.w3.org/1999/xlink" width="700" zoomAndPan="magnify" viewBox="0 0 525 374.999991" height="500" preserveAspectRatio="xMidYMid meet" version="1.0"><defs><g/><clipPath id="7fe63ffb9e"><path d="M 70 129 L 120 129 L 120 180 L 70 180 Z M 70 129 " clip-rule="nonzero"/></clipPath><clipPath id="706f6e297e"><path d="M 68.714844 94.582031 L 243.136719 163.382812 L 174.335938 337.804688 L -0.0859375 269.003906 Z M 68.714844 94.582031 " clip-rule="nonzero"/></clipPath><clipPath id="3539435f0c"><path d="M 68.714844 94.582031 L 243.136719 163.382812 L 174.335938 337.804688 L -0.0859375 269.003906 Z M 68.714844 94.582031 " clip-rule="nonzero"/></clipPath><clipPath id="b9fc38c4e0"><path d="M 52 112 L 138 112 L 138 198 L 52 198 Z M 52 112 " clip-rule="nonzero"/></clipPath><clipPath id="d954d83c84"><path d="M 68.714844 94.582031 L 243.136719 163.382812 L 174.335938 337.804688 L -0.0859375 269.003906 Z M 68.714844 94.582031 " clip-rule="nonzero"/></clipPath><clipPath id="fd08667f53"><path d="M 68.714844 94.582031 L 243.136719 163.382812 L 174.335938 337.804688 L -0.0859375 269.003906 Z M 68.714844 94.582031 " clip-rule="nonzero"/></clipPath><clipPath id="237b8ce3e4"><path d="M 88 153 L 208 153 L 208 305 L 88 305 Z M 88 153 " clip-rule="nonzero"/></clipPath><clipPath id="926cc1ea2d"><path d="M 68.714844 94.582031 L 243.136719 163.382812 L 174.335938 337.804688 L -0.0859375 269.003906 Z M 68.714844 94.582031 " clip-rule="nonzero"/></clipPath><clipPath id="d4beff783b"><path d="M 68.714844 94.582031 L 243.136719 163.382812 L 174.335938 337.804688 L -0.0859375 269.003906 Z M 68.714844 94.582031 " clip-rule="nonzero"/></clipPath><clipPath id="c5a48b3a8e"><path d="M 88 153 L 137 153 L 137 305 L 88 305 Z M 88 153 " clip-rule="nonzero"/></clipPath><clipPath id="e9dd74c157"><path d="M 68.714844 94.582031 L 243.136719 163.382812 L 174.335938 337.804688 L -0.0859375 269.003906 Z M 68.714844 94.582031 " clip-rule="nonzero"/></clipPath><clipPath id="0f873d8c4b"><path d="M 68.714844 94.582031 L 243.136719 163.382812 L 174.335938 337.804688 L -0.0859375 269.003906 Z M 68.714844 94.582031 " clip-rule="nonzero"/></clipPath></defs><g fill="#58ffbe" fill-opacity="1"><g transform="translate(144.418533, 188.416197)"><g><path d="M 20.359375 -64.9375 L 20.359375 -42.96875 L 46.203125 -42.96875 L 46.203125 -32.953125 L 20.359375 -32.953125 L 20.359375 -10.015625 L 49.4375 -10.015625 L 49.4375 0 L 8.078125 0 L 8.078125 -74.96875 L 49.4375 -74.96875 L 49.4375 -64.9375 Z M 20.359375 -64.9375 "/></g></g></g><g fill="#58ffbe" fill-opacity="1"><g transform="translate(198.698948, 188.416197)"><g><path d="M 29.625 0.96875 C 24.957031 0.96875 20.773438 0.125 17.078125 -1.5625 C 13.378906 -3.25 10.453125 -5.546875 8.296875 -8.453125 C 6.140625 -11.359375 4.988281 -14.609375 4.84375 -18.203125 L 17.5625 -18.203125 C 17.769531 -15.691406 18.96875 -13.59375 21.15625 -11.90625 C 23.351562 -10.21875 26.101562 -9.375 29.40625 -9.375 C 32.851562 -9.375 35.523438 -10.035156 37.421875 -11.359375 C 39.328125 -12.691406 40.28125 -14.398438 40.28125 -16.484375 C 40.28125 -18.703125 39.21875 -20.347656 37.09375 -21.421875 C 34.976562 -22.503906 31.625 -23.691406 27.03125 -24.984375 C 22.582031 -26.203125 18.957031 -27.382812 16.15625 -28.53125 C 13.351562 -29.6875 10.925781 -31.445312 8.875 -33.8125 C 6.832031 -36.1875 5.8125 -39.3125 5.8125 -43.1875 C 5.8125 -46.34375 6.742188 -49.234375 8.609375 -51.859375 C 10.484375 -54.484375 13.160156 -56.546875 16.640625 -58.046875 C 20.117188 -59.554688 24.125 -60.3125 28.65625 -60.3125 C 35.394531 -60.3125 40.828125 -58.601562 44.953125 -55.1875 C 49.085938 -51.78125 51.300781 -47.132812 51.59375 -41.25 L 39.3125 -41.25 C 39.09375 -43.90625 38.015625 -46.019531 36.078125 -47.59375 C 34.140625 -49.175781 31.519531 -49.96875 28.21875 -49.96875 C 24.988281 -49.96875 22.507812 -49.359375 20.78125 -48.140625 C 19.0625 -46.921875 18.203125 -45.304688 18.203125 -43.296875 C 18.203125 -41.710938 18.773438 -40.382812 19.921875 -39.3125 C 21.066406 -38.238281 22.46875 -37.394531 24.125 -36.78125 C 25.78125 -36.164062 28.222656 -35.394531 31.453125 -34.46875 C 35.753906 -33.3125 39.285156 -32.140625 42.046875 -30.953125 C 44.816406 -29.773438 47.207031 -28.035156 49.21875 -25.734375 C 51.226562 -23.441406 52.269531 -20.394531 52.34375 -16.59375 C 52.34375 -13.21875 51.410156 -10.195312 49.546875 -7.53125 C 47.679688 -4.875 45.039062 -2.789062 41.625 -1.28125 C 38.21875 0.21875 34.21875 0.96875 29.625 0.96875 Z M 29.625 0.96875 "/></g></g></g><g fill="#58ffbe" fill-opacity="1"><g transform="translate(254.056358, 188.416197)"><g><path d="M 22.40625 -49.328125 L 22.40625 -16.484375 C 22.40625 -14.253906 22.925781 -12.65625 23.96875 -11.6875 C 25.007812 -10.71875 26.785156 -10.234375 29.296875 -10.234375 L 36.828125 -10.234375 L 36.828125 0 L 27.140625 0 C 21.609375 0 17.367188 -1.289062 14.421875 -3.875 C 11.484375 -6.457031 10.015625 -10.660156 10.015625 -16.484375 L 10.015625 -49.328125 L 3.015625 -49.328125 L 3.015625 -59.34375 L 10.015625 -59.34375 L 10.015625 -74.09375 L 22.40625 -74.09375 L 22.40625 -59.34375 L 36.828125 -59.34375 L 36.828125 -49.328125 Z M 22.40625 -49.328125 "/></g></g></g><g fill="#58ffbe" fill-opacity="1"><g transform="translate(291.966406, 188.416197)"><g><path d="M 14.328125 -67.203125 C 12.097656 -67.203125 10.226562 -67.957031 8.71875 -69.46875 C 7.21875 -70.976562 6.46875 -72.84375 6.46875 -75.0625 C 6.46875 -77.289062 7.21875 -79.160156 8.71875 -80.671875 C 10.226562 -82.179688 12.097656 -82.9375 14.328125 -82.9375 C 16.484375 -82.9375 18.3125 -82.179688 19.8125 -80.671875 C 21.320312 -79.160156 22.078125 -77.289062 22.078125 -75.0625 C 22.078125 -72.84375 21.320312 -70.976562 19.8125 -69.46875 C 18.3125 -67.957031 16.484375 -67.203125 14.328125 -67.203125 Z M 20.359375 -59.34375 L 20.359375 0 L 8.078125 0 L 8.078125 -59.34375 Z M 20.359375 -59.34375 "/></g></g></g><g fill="#58ffbe" fill-opacity="1"><g transform="translate(318.244853, 188.416197)"><g><path d="M 32.953125 -49.328125 L 21.96875 -49.328125 L 21.96875 0 L 9.578125 0 L 9.578125 -49.328125 L 2.578125 -49.328125 L 2.578125 -59.34375 L 9.578125 -59.34375 L 9.578125 -63.546875 C 9.578125 -70.367188 11.390625 -75.335938 15.015625 -78.453125 C 18.648438 -81.578125 24.34375 -83.140625 32.09375 -83.140625 L 32.09375 -72.921875 C 28.363281 -72.921875 25.742188 -72.21875 24.234375 -70.8125 C 22.722656 -69.414062 21.96875 -66.992188 21.96875 -63.546875 L 21.96875 -59.34375 L 32.953125 -59.34375 Z M 32.953125 -49.328125 "/></g></g></g><g fill="#58ffbe" fill-opacity="1"><g transform="translate(351.84689, 188.416197)"><g><path d="M 14.328125 -67.203125 C 12.097656 -67.203125 10.226562 -67.957031 8.71875 -69.46875 C 7.21875 -70.976562 6.46875 -72.84375 6.46875 -75.0625 C 6.46875 -77.289062 7.21875 -79.160156 8.71875 -80.671875 C 10.226562 -82.179688 12.097656 -82.9375 14.328125 -82.9375 C 16.484375 -82.9375 18.3125 -82.179688 19.8125 -80.671875 C 21.320312 -79.160156 22.078125 -77.289062 22.078125 -75.0625 C 22.078125 -72.84375 21.320312 -70.976562 19.8125 -69.46875 C 18.3125 -67.957031 16.484375 -67.203125 14.328125 -67.203125 Z M 20.359375 -59.34375 L 20.359375 0 L 8.078125 0 L 8.078125 -59.34375 Z M 20.359375 -59.34375 "/></g></g></g><g fill="#58ffbe" fill-opacity="1"><g transform="translate(378.125336, 188.416197)"><g><path d="M 33.5 -30.046875 L 52.671875 0 L 38.765625 0 L 25.953125 -20.140625 L 13.890625 0 L 1.078125 0 L 20.25 -29.1875 L 1.078125 -59.34375 L 14.96875 -59.34375 L 27.78125 -39.203125 L 39.84375 -59.34375 L 52.671875 -59.34375 Z M 33.5 -30.046875 "/></g></g></g><g clip-path="url(#7fe63ffb9e)"><g clip-path="url(#706f6e297e)"><g clip-path="url(#3539435f0c)"><path fill="#ffffff" d="M 85.105469 132.011719 C 72.421875 137.519531 66.65625 152.136719 72.164062 164.816406 C 77.671875 177.5 92.285156 183.265625 104.96875 177.757812 C 117.652344 172.25 123.417969 157.632812 117.910156 144.953125 C 112.402344 132.269531 97.558594 126.601562 85.105469 132.011719 Z M 102.054688 171.351562 C 92.996094 175.285156 82.4375 171.121094 78.503906 162.0625 C 74.570312 153.003906 78.734375 142.449219 87.792969 138.515625 C 96.851562 134.582031 107.40625 138.746094 111.339844 147.804688 C 115.273438 156.863281 111.113281 167.417969 102.054688 171.351562 Z M 102.054688 171.351562 " fill-opacity="1" fill-rule="nonzero"/></g></g></g><g clip-path="url(#b9fc38c4e0)"><g clip-path="url(#d954d83c84)"><g clip-path="url(#fd08667f53)"><path fill="#ffffff" d="M 78.058594 116.09375 C 56.542969 125.4375 46.742188 150.285156 56.085938 171.800781 C 65.425781 193.3125 90.273438 203.113281 111.789062 193.773438 C 133.304688 184.429688 143.105469 159.582031 133.761719 138.066406 C 124.417969 116.554688 99.410156 106.6875 78.058594 116.09375 Z M 109.097656 187.269531 C 91.207031 195.039062 70.421875 186.839844 62.652344 168.949219 C 54.882812 151.058594 63.082031 130.269531 80.972656 122.5 C 98.863281 114.730469 119.652344 122.929688 127.421875 140.820312 C 135.191406 158.710938 126.828125 179.4375 109.097656 187.269531 Z M 109.097656 187.269531 " fill-opacity="1" fill-rule="nonzero"/></g></g></g><g clip-path="url(#237b8ce3e4)"><g clip-path="url(#926cc1ea2d)"><g clip-path="url(#d4beff783b)"><path fill="#36d698" d="M 97.171875 154.226562 L 206.269531 250.183594 C 208.222656 251.890625 206.78125 255.074219 204.25 254.828125 L 137.410156 249.671875 C 136.53125 249.511719 135.625 249.90625 135.144531 250.652344 L 93.28125 303.015625 C 91.734375 305.035156 88.425781 303.914062 88.507812 301.320312 L 92.871094 156.09375 C 92.828125 153.824219 95.542969 152.644531 97.171875 154.226562 Z M 97.171875 154.226562 " fill-opacity="1" fill-rule="nonzero"/></g></g></g><g clip-path="url(#c5a48b3a8e)"><g clip-path="url(#e9dd74c157)"><g clip-path="url(#0f873d8c4b)"><path fill="#58ffbe" d="M 93.28125 303.015625 L 135.144531 250.652344 C 135.433594 250.394531 135.789062 249.96875 136.179688 249.933594 L 94.480469 153.914062 C 93.574219 154.308594 92.867188 155.15625 92.804688 156.257812 L 88.507812 301.320312 C 88.425781 303.914062 91.671875 305.195312 93.28125 303.015625 Z M 93.28125 303.015625 " fill-opacity="1" fill-rule="nonzero"/></g></g></g></svg>